<svg width="55" height="55" viewBox="0 0 55 55" fill="none" xmlns="http://www.w3.org/2000/svg">
<g id="mdi:gmail">
<path id="Vector" d="M45.8333 41.2501H41.25V21.198L27.5 29.7917L13.75 21.198V41.2501H9.16668V13.7501H11.9167L27.5 23.4897L43.0833 13.7501H45.8333M45.8333 9.16675H9.16668C6.62293 9.16675 4.58334 11.2063 4.58334 13.7501V41.2501C4.58334 42.4657 5.06623 43.6314 5.92577 44.491C6.78531 45.3505 7.9511 45.8334 9.16668 45.8334H45.8333C47.0489 45.8334 48.2147 45.3505 49.0742 44.491C49.9338 43.6314 50.4167 42.4657 50.4167 41.2501V13.7501C50.4167 12.5345 49.9338 11.3687 49.0742 10.5092C48.2147 9.64963 47.0489 9.16675 45.8333 9.16675Z" fill="white"/>
</g>
</svg>
