<svg width="55" height="55" viewBox="0 0 55 55" fill="none" xmlns="http://www.w3.org/2000/svg">
<g id="ant-design:instagram-filled">
<path id="Vector" d="M27.5 20.3402C23.5576 20.3402 20.3403 23.5575 20.3403 27.4999C20.3403 31.4423 23.5576 34.6596 27.5 34.6596C31.4424 34.6596 34.6597 31.4423 34.6597 27.4999C34.6597 23.5575 31.4424 20.3402 27.5 20.3402ZM48.9736 27.4999C48.9736 24.535 49.0005 21.5971 48.834 18.6376C48.6675 15.2001 47.8833 12.1493 45.3696 9.63563C42.8506 7.11659 39.8052 6.33778 36.3677 6.17128C33.4028 6.00477 30.4649 6.03163 27.5054 6.03163C24.5405 6.03163 21.6026 6.00477 18.6431 6.17128C15.2056 6.33778 12.1548 7.12196 9.64112 9.63563C7.12208 12.1547 6.34327 15.2001 6.17677 18.6376C6.01026 21.6024 6.03712 24.5404 6.03712 27.4999C6.03712 30.4594 6.01026 33.4027 6.17677 36.3622C6.34327 39.7997 7.12745 42.8505 9.64112 45.3641C12.1602 47.8832 15.2056 48.662 18.6431 48.8285C21.6079 48.995 24.5459 48.9682 27.5054 48.9682C30.4702 48.9682 33.4082 48.995 36.3677 48.8285C39.8052 48.662 42.856 47.8778 45.3696 45.3641C47.8887 42.8451 48.6675 39.7997 48.834 36.3622C49.0059 33.4027 48.9736 30.4647 48.9736 27.4999ZM27.5 38.516C21.4038 38.516 16.4839 33.5961 16.4839 27.4999C16.4839 21.4037 21.4038 16.4838 27.5 16.4838C33.5962 16.4838 38.5161 21.4037 38.5161 27.4999C38.5161 33.5961 33.5962 38.516 27.5 38.516ZM38.9673 18.6054C37.544 18.6054 36.3945 17.4559 36.3945 16.0326C36.3945 14.6093 37.544 13.4598 38.9673 13.4598C40.3906 13.4598 41.5401 14.6093 41.5401 16.0326C41.5405 16.3706 41.4742 16.7053 41.3451 17.0177C41.2159 17.33 41.0264 17.6138 40.7875 17.8528C40.5485 18.0917 40.2647 18.2812 39.9524 18.4104C39.64 18.5395 39.3053 18.6058 38.9673 18.6054Z" fill="white"/>
</g>
</svg>
